<!--?xml version="1.0" standalone="no"?-->
              <svg id="sw-js-blob-svg" viewBox="0 0 100 100" xmlns="http://www.w3.org/2000/svg" version="1.1">
                    <defs> 
                        <linearGradient id="sw-gradient" x1="0" x2="1" y1="1" y2="0">
                            <stop id="stop1" stop-color="rgba(222.058, 0, 0, 1)" offset="0%"></stop>
                            <stop id="stop2" stop-color="rgba(5.479, 5.052, 4.348, 1)" offset="100%"></stop>
                        </linearGradient>
                    </defs>
                <path fill="none" d="M11.4,-18.9C17.3,-16.3,26.4,-18.4,29.2,-16C31.9,-13.7,28.2,-6.8,25.3,-1.7C22.3,3.4,20.1,6.9,16.9,8.4C13.7,10,9.5,9.7,6.6,11.8C3.6,14,1.8,18.6,-2.3,22.6C-6.5,26.6,-12.9,30.1,-15.9,28C-18.8,25.8,-18.2,18,-22,12.3C-25.8,6.7,-34.2,3.4,-36.1,-1.1C-38,-5.6,-33.5,-11.2,-28,-13.9C-22.5,-16.6,-15.9,-16.4,-11.1,-19.6C-6.3,-22.8,-3.1,-29.3,-0.2,-28.9C2.7,-28.6,5.5,-21.4,11.4,-18.9Z" width="100%" height="100%" transform="translate(50 50)" stroke-width="1" style="transition: all 0.3s ease 0s;" stroke="url(#sw-gradient)"></path>
              </svg>